<?xml version="1.0" encoding="UTF-8" standalone="no"?><!DOCTYPE svg PUBLIC "-//W3C//DTD SVG 1.1//EN" "http://www.w3.org/Graphics/SVG/1.1/DTD/svg11.dtd"><svg width="100%" height="100%" viewBox="0 0 29 28" version="1.1" xmlns="http://www.w3.org/2000/svg" xmlns:xlink="http://www.w3.org/1999/xlink" xml:space="preserve" xmlns:serif="http://www.serif.com/" style="fill-rule:evenodd;clip-rule:evenodd;stroke-linejoin:round;stroke-miterlimit:2;"><rect x="-1.5" y="-3.16" width="32" height="33"/><g><path d="M25.948,9.509l-0,11.447l-11.448,5.724l-0,-2.862l8.586,-4.293l-0,-5.723l-8.586,4.293l0,-2.862l11.448,-5.724Z" style="fill:#fff;"/><path d="M14.502,23.517l-0.002,-5.007l2.862,-1.431l-0,5.008l-2.86,1.43Z" style="fill:#fff;"/><path d="M7.249,14.513l-4.197,-2.142l0.045,-2.84l11.403,5.702l-0,2.862l-4.338,-2.169l0.003,5.725l4.335,2.167l-0,2.862l-11.448,-5.724l0.045,-2.839l4.289,2.144l-0.137,-5.748Z" style="fill:#929292;"/><path d="M14.5,3.606l-8.228,4.114l8.228,4.114l8.228,-4.114l-8.228,-4.114Z" style="fill:#fff;"/></g><text x="21px" y="8.596px" style="font-family:'ArialMT', 'Arial', sans-serif;font-size:12px;fill:#fff;">+</text></svg>